PathFileType	4	(X/Y/Z)	C:\Users\Basilio\Documents\Thesis Gigler\squatting_fais\c3dfiles\039\SLS_pre_front3\markers_experimental.trc
DataRate	CameraRate	NumFrames	NumMarkers	Units	OrigDataRate	OrigDataStartFrame	OrigNumFrames
200.000000	200.000000	4	63	mm	200.000000	1895	2166
Frame#	Time	FHD			LBHD			RBHD			C7			T10			CLAV			LSHO			LUUPA			LMUPA			LDUPA			LLEP			LMEP			LRAD			LUL			LRFIN			RSHO			RUPA1			RMUPA			RDUPA			RLEP			RMEP			RRAD			RUL			RUFIN			LASI			RASI			USACR			LSACR			RSACR			LTHI1			LTHI2			LTHI3			LTHI4			LLFC			LMFC			LTIB1			LTIB2			LTIB3			LTIB4			LLMAL			LMMAL			LHEE			LMT1			LMT2			LMT5			RTHI			RTHI2			RTHI3			RTHI4			RLFC			RMFC			RTIB1			RTIB2			RTIB3			RTIB4			RLMAL			RMMAL			RHEE			RMT1			RMT2			RMT5			*61			*62			
		X1	Y1	Z1	X2	Y2	Z2	X3	Y3	Z3	X4	Y4	Z4	X5	Y5	Z5	X6	Y6	Z6	X7	Y7	Z7	X8	Y8	Z8	X9	Y9	Z9	X10	Y10	Z10	X11	Y11	Z11	X12	Y12	Z12	X13	Y13	Z13	X14	Y14	Z14	X15	Y15	Z15	X16	Y16	Z16	X17	Y17	Z17	X18	Y18	Z18	X19	Y19	Z19	X20	Y20	Z20	X21	Y21	Z21	X22	Y22	Z22	X23	Y23	Z23	X24	Y24	Z24	X25	Y25	Z25	X26	Y26	Z26	X27	Y27	Z27	X28	Y28	Z28	X29	Y29	Z29	X30	Y30	Z30	X31	Y31	Z31	X32	Y32	Z32	X33	Y33	Z33	X34	Y34	Z34	X35	Y35	Z35	X36	Y36	Z36	X37	Y37	Z37	X38	Y38	Z38	X39	Y39	Z39	X40	Y40	Z40	X41	Y41	Z41	X42	Y42	Z42	X43	Y43	Z43	X44	Y44	Z44	X45	Y45	Z45	X46	Y46	Z46	X47	Y47	Z47	X48	Y48	Z48	X49	Y49	Z49	X50	Y50	Z50	X51	Y51	Z51	X52	Y52	Z52	X53	Y53	Z53	X54	Y54	Z54	X55	Y55	Z55	X56	Y56	Z56	X57	Y57	Z57	X58	Y58	Z58	X59	Y59	Z59	X60	Y60	Z60	X61	Y61	Z61	X62	Y62	Z62	X63	Y63	Z63	

1896	9.475	-391.3211364746095	1808.41064453125	-698.4738769531251	-516.3604125976564	1750.077026367188	-843.0357055664065	-513.7734985351564	1753.593872070313	-701.7119750976564	-537.0913085937501	1596.476806640625	-766.7725830078126	-537.8038330078126	1280.75244140625	-767.2742919921876	-384.6893005371095	1538.842407226563	-777.9676513671877	-483.0023803710939	1564.29296875	-958.5996093750002	-534.4691162109376	1348.141845703125	-1052.103637695313	-492.9071044921876	1346.046020507813	-1078.023193359375	-515.9926147460939	1290.4462890625	-1085.488891601563	-497.5054931640626	1236.990112304688	-1113.974731445313	-489.421844482422	1201.86962890625	-1041.314697265625	-333.6304321289063	1014.72509765625	-1202.174682617188	-403.1065063476564	1003.366088867188	-1231.7939453125	-297.7265930175782	954.7982177734377	-1253.14990234375	-405.9634704589845	1571.668212890625	-585.2792358398439	-420.2510681152345	1366.8134765625	-457.3387145996095	-371.4313354492188	1360.973876953125	-449.987274169922	-393.8164062500001	1308.28369140625	-431.1526794433595	-351.7009582519532	1262.981689453125	-409.5856323242189	-383.5406494140626	1216.798217773438	-470.4129638671876	-112.4712982177735	1086.527587890625	-471.450408935547	-137.7452392578125	1064.066772460938	-401.5876770019532	-33.47168350219727	1041.491821289063	-452.4453430175782	-378.8276672363282	1114.905395507813	-908.7034912109377	-360.7964782714844	1081.509521484375	-687.3414916992189	-551.3881835937501	1152.5009765625	-774.380310058594	-557.3523559570314	1123.8603515625	-805.734802246094	-551.1748046875001	1116.481201171875	-746.7717285156251	-381.9767150878907	837.7575683593752	-991.8718261718752	-335.4987182617188	767.4110107421876	-993.8843994140627	-288.7174987792969	778.293151855469	-983.8525390625002	-350.7613220214844	710.4862060546876	-988.4189453125002	-330.6734313964844	592.3728637695314	-993.226257324219	-311.0266418457032	561.4906616210939	-878.7847290039065	-281.5167541503907	441.8382568359376	-977.9730224609377	-345.5452575683594	410.7455444335939	-1028.9697265625	-307.1603088378907	400.1765136718751	-1009.210144042969	-316.8868713378907	318.4850769042969	-977.6899414062502	-385.8448486328126	157.0634460449219	-1029.597412109375	-376.6148376464844	150.9094848632813	-943.110534667969	-463.1629028320314	113.1040954589844	-999.0186767578127	-238.8668518066407	70.6951141357422	-955.584411621094	-238.1966094970704	74.55976867675783	-997.7613525390627	-281.1654357910157	57.31599426269533	-1054.417358398438	-372.1221008300782	809.4814453125002	-635.6518554687501	-321.7899169921876	764.8182373046876	-638.2534179687501	-291.9306945800782	774.455505371094	-647.8455200195314	-333.4760437011719	681.3684082031251	-653.0158081054689	-341.9418334960938	542.3981933593751	-681.8152465820314	-313.8834228515626	542.0468139648439	-798.4731445312502	-297.9964904785157	334.2962036132813	-708.4593505859376	-382.9239196777344	268.3753356933594	-700.9926757812501	-336.8647460937501	259.9998779296876	-702.8262939453126	-318.2638244628907	212.3100738525391	-735.5247802734376	-384.0059509277345	118.6066436767578	-713.9915161132814	-355.8966369628907	137.7310791015625	-799.036560058594	-452.4878845214845	100.5025939941407	-768.110778808594	-227.5444030761719	61.39949798583986	-777.629089355469	-229.927474975586	65.10683441162111	-731.1450195312501	-287.8019409179688	43.40939712524415	-684.5840454101564	nan	nan	nan	nan	nan	nan	
1897	9.48	-391.0295410156251	1808.623657226563	-699.3354492187501	-515.4021606445314	1749.9765625	-843.988708496094	-513.2471313476564	1753.6611328125	-702.7157592773439	-536.7873535156251	1596.358764648438	-767.5762939453126	-537.3420410156251	1280.689086914063	-768.1208496093752	-384.4660949707032	1538.808349609375	-778.6516113281252	-482.6555175781251	1564.248046875	-959.6350708007815	-535.1660156250001	1347.393798828125	-1051.804809570313	-493.1002807617189	1344.4951171875	-1077.356689453125	-517.0166015625001	1289.210693359375	-1084.493530273438	-498.9097290039064	1235.590698242188	-1112.388671875	-490.6085205078126	1200.948852539063	-1039.280395507813	-337.9641418457032	1011.022888183594	-1200.164916992188	-407.9875793457032	999.9917602539065	-1228.695678710938	-303.4521484375001	950.2307739257815	-1251.236328125	-405.857147216797	1571.5283203125	-585.7808837890626	-421.4774169921876	1366.073974609375	-458.6272583007814	-372.7781677246094	1360.040893554688	-451.3459777832032	-395.2386169433595	1307.392822265625	-432.7460937500001	-353.7429199218751	1261.667602539063	-411.3038330078126	-385.8186035156251	1215.880615234375	-472.4678955078126	-115.9921264648438	1083.039306640625	-472.0127563476564	-141.7437896728516	1060.587768554688	-402.300262451172	-37.24940490722657	1037.254272460938	-452.0470275878907	-378.4778747558594	1114.409545898438	-909.3331298828127	-360.7585754394532	1081.113037109375	-688.4004516601564	-550.7965087890626	1152.560913085938	-775.1607055664065	-556.8123779296876	1123.764038085938	-806.469665527344	-550.9475708007814	1116.671020507813	-747.5040893554689	-382.8489990234376	837.1984863281252	-992.649353027344	-336.9011230468751	766.7702636718751	-994.6829223632815	-290.4187622070313	777.560974121094	-984.8957519531252	-352.2873840332032	709.7958984375001	-989.2910156250002	-332.6780700683594	591.4910888671876	-994.0810546875002	-312.0708618164063	560.8102416992189	-879.2622680664065	-283.7166748046876	440.8736267089845	-978.8557739257815	-347.9301452636719	409.8121643066407	-1029.678466796875	-309.2066040039063	399.4383239746095	-1009.815246582031	-319.0805664062501	317.5407409667969	-978.305358886719	-388.5054931640626	155.9550323486328	-1029.732177734375	-378.5036926269532	150.0140838623047	-943.420349121094	-464.9317932128907	112.6063690185547	-999.1179199218752	-239.8952331542969	69.73384857177736	-956.5217285156252	-240.3851470947266	73.27294921875001	-998.3484497070315	-283.2917175292969	56.43795013427736	-1054.735107421875	-371.8310852050782	809.2974243164065	-635.5817260742189	-321.3168945312501	765.1761474609376	-638.4132690429689	-291.6227416992188	774.5639648437502	-648.3351440429689	-333.1925354003907	680.9906005859376	-653.4824218750001	-341.5965881347657	542.5253295898439	-682.1216430664064	-313.5033874511719	541.9403076171876	-798.7578125000002	-297.7106323242188	334.2767639160157	-708.7143554687501	-382.8150634765626	268.3795776367188	-700.9967041015626	-336.7737731933594	259.9628906250001	-703.0298461914064	-318.2249145507813	212.0014648437501	-735.8372802734376	-383.9689941406251	118.6164169311524	-713.9899902343751	-355.9144592285157	137.6690673828125	-799.098083496094	-452.4782104492189	100.5244674682617	-768.1171875000002	-227.4799194335938	61.31461334228517	-777.5942382812502	-229.9094696044922	65.06851959228517	-731.1981811523439	-287.8380126953126	43.40516662597657	-684.6009521484376	nan	nan	nan	nan	nan	nan	
1898	9.484999999999999	-390.2918090820314	1808.708618164063	-699.6587524414064	-514.7578125000001	1749.994384765625	-844.9624633789065	-512.7038574218751	1753.73486328125	-703.7799072265626	-536.1137695312501	1596.194946289063	-768.5728759765627	-536.6315917968751	1280.60498046875	-769.0999145507815	-383.7913818359376	1538.950439453125	-779.7272949218752	-482.3650207519532	1564.150634765625	-960.5319824218752	-535.6339111328126	1346.551391601563	-1051.373413085938	-493.7817993164064	1343.558471679688	-1076.882934570313	-518.0726928710939	1287.9775390625	-1083.393310546875	-500.2911987304689	1234.069702148438	-1110.836181640625	-491.8989257812501	1199.998901367188	-1037.785766601563	-342.6210632324219	1007.526611328125	-1198.156982421875	-412.6607360839845	996.621520996094	-1225.718139648438	-309.0076599121094	945.8950195312502	-1249.27587890625	-405.5346984863282	1571.5302734375	-586.3712768554689	-422.2668457031251	1365.258544921875	-459.8834838867189	-373.9949951171876	1359.083984375	-452.6168212890626	-396.8939819335939	1306.369018554688	-434.3467712402345	-355.8585510253907	1260.111328125	-413.0626525878907	-388.0001220703126	1215.087524414063	-474.4351501464845	-119.8177261352539	1079.669799804688	-472.2639465332032	-146.3094024658203	1057.04150390625	-402.5930175781251	-41.41622924804688	1032.892211914063	-451.9744567871095	-377.8352966308594	1114.066528320313	-910.1215820312502	-360.2967834472657	1081.070556640625	-689.2511596679689	-550.2135009765626	1152.6533203125	-775.9156494140627	-556.3580322265626	1123.747680664063	-807.209899902344	-550.4084472656251	1116.846435546875	-748.2919311523439	-383.8549499511719	836.5313110351565	-993.4956054687502	-338.2124633789063	766.0545654296876	-995.6268310546877	-291.3977050781251	776.3175048828127	-985.677185058594	-353.9455261230469	708.8594970703126	-990.0527343750002	-335.0455932617188	590.4740600585939	-994.8859863281252	-314.0497436523438	559.8990478515626	-880.1355590820315	-285.9283447265626	439.9896240234376	-979.270690917969	-350.1396789550782	409.1150817871095	-1030.132446289063	-310.9764709472657	398.5699768066407	-1010.688293457031	-321.2944335937501	316.4135131835938	-978.8704223632815	-390.5014648437501	154.7680816650391	-1030.0244140625	-380.3427734375001	149.0737609863282	-943.749450683594	-466.8190307617189	112.0705947875977	-999.382507324219	-241.7276763916016	68.57498168945314	-957.0626220703127	-242.0970306396485	71.81890106201173	-998.8880004882815	-285.3711242675782	55.01635742187501	-1055.317138671875	-371.3670654296876	809.0815429687502	-636.3635253906251	-320.8504638671876	765.1585693359376	-638.9075317382814	-291.3865966796876	774.6400146484377	-648.8504028320314	-332.7276000976563	681.0150756835939	-653.9245605468751	-341.2302856445313	542.5527343750001	-682.3854370117189	-313.1890563964844	541.8699340820314	-799.0618286132815	-297.4907531738282	334.2821350097657	-709.0277709960939	-382.7230224609376	268.4389038085938	-701.0938110351564	-336.6926269531251	259.9942932128907	-703.2456665039064	-318.1520385742188	211.9488525390626	-735.9797973632814	-383.9633789062501	118.6534957885742	-714.0639038085939	-355.8487854003907	137.6218872070313	-799.1165771484377	-452.4733276367189	100.5325469970703	-768.110046386719	-227.4662475585938	61.24563598632814	-777.5892333984377	-229.9000091552735	65.08425903320314	-731.2030639648439	-287.7993164062501	43.45357513427735	-684.5867919921876	nan	nan	nan	nan	nan	nan	
1899	9.49	-389.6888732910157	1808.672119140625	-700.6126708984376	-513.9102172851564	1749.907836914063	-846.070007324219	-512.4182128906251	1753.730834960938	-704.5834960937501	-535.7502441406251	1595.958862304688	-769.4148559570315	-536.2893676757814	1280.461791992188	-769.957458496094	-383.2944946289063	1538.69970703125	-780.6809082031252	-481.9448852539064	1564.046630859375	-961.6121826171877	-537.2275390625001	1345.421020507813	-1051.470825195313	-494.3430786132814	1342.251220703125	-1076.422973632813	-519.0085449218751	1286.682861328125	-1082.462036132813	-501.7362670898439	1232.52587890625	-1109.349975585938	-493.0763549804689	1199.132934570313	-1035.853637695313	-347.1267089843751	1003.865417480469	-1195.710327148438	-417.2619018554689	993.2437744140627	-1222.431640625	-314.6747131347657	941.6074829101565	-1247.173095703125	-405.0882568359376	1571.146606445313	-587.3784790039064	-423.5970153808595	1364.622314453125	-461.2916564941407	-375.5530395507813	1357.476928710938	-454.2157592773439	-398.4144592285157	1305.456420898438	-436.0288696289064	-357.7640991210938	1258.8603515625	-414.8612365722657	-390.0460205078126	1214.101684570313	-476.5257263183595	-123.0905227661133	1075.844360351563	-472.901092529297	-150.3771667480469	1053.657958984375	-403.4184570312501	-45.52770996093751	1028.206787109375	-452.0150146484376	-377.3240051269532	1113.931396484375	-911.0765380859377	-359.8859252929688	1080.915771484375	-690.0548706054689	-549.7067260742189	1152.541381835938	-776.8247680664065	-555.8455200195314	1123.756958007813	-807.9732666015627	-549.6426391601564	1116.651245117188	-749.0787963867189	-385.0110778808595	835.9214477539065	-994.325866699219	-339.4484252929688	765.2111816406251	-996.4670410156252	-292.7422790527344	775.4113769531252	-986.5018310546877	-355.5634460449219	708.3815917968751	-990.7916259765627	-337.1428527832032	589.5321044921876	-995.5166625976565	-317.1495666503907	558.9795532226564	-881.4268188476565	-287.9408569335938	439.4333496093751	-980.0385742187502	-352.3684692382813	407.9016418457032	-1030.834228515625	-313.4302062988282	397.4968261718751	-1011.217529296875	-323.2783508300782	315.6120300292969	-979.382263183594	-392.181121826172	154.1226348876953	-1030.302124023438	-381.7430114746094	148.3671569824219	-944.0861816406252	-467.7710876464845	112.009391784668	-999.377868652344	-243.3749389648438	67.55638885498048	-957.7271118164065	-243.9336853027344	70.16012573242189	-999.6232910156252	-287.3362121582032	53.53799438476564	-1055.67236328125	-370.9572753906251	809.0975341796877	-636.7870483398439	-320.3138122558594	765.1358032226564	-639.6241455078126	-290.9692993164063	774.707946777344	-649.3576049804689	-332.3034667968751	681.1301879882814	-654.3308105468751	-340.8576660156251	542.5233154296876	-682.7188720703126	-312.9154052734376	541.8230590820314	-799.443542480469	-297.2761230468751	334.1925354003907	-709.2487792968751	-382.6400146484376	268.5129089355469	-701.1392822265626	-336.5705261230469	259.9628906250001	-703.4971923828126	-318.1044921875001	211.9134216308594	-736.0979614257814	-383.8951110839844	118.6818923950196	-714.0970458984376	-355.8510131835938	137.6004333496094	-799.1904907226565	-452.4886474609376	100.5719146728516	-768.1459960937502	-227.5589447021485	61.36687469482423	-777.6905517578127	-229.9120788574219	65.0802459716797	-731.2352294921876	-287.8142700195313	43.44143295288087	-684.6729736328126	nan	nan	nan	nan	nan	nan	
